<svg width="307" height="376" viewBox="0 0 307 376" fill="none" xmlns="http://www.w3.org/2000/svg">
<g filter="url(#filter0_d_2001_5)">
<path d="M107.228 213.008C73.9672 214.374 41.3018 222.278 11.0996 236.269L92.7243 14.7875C95.0854 8.04533 99.1329 4 104.192 4H202.007C207.066 4 211.114 8.04533 213.475 14.7875L295.1 236.269C295.1 236.269 255.974 212.671 198.971 212.671L163.218 101.762C161.869 96.0312 157.822 92.3229 153.437 92.3229C149.052 92.3229 145.005 96.0312 143.655 101.425L107.228 213.008ZM89.3514 239.977C82.6055 262.227 87.3276 293.241 103.518 308.074C103.726 307.282 103.951 306.496 104.192 305.714C105.006 301.282 107.406 297.298 110.944 294.507C114.482 291.715 118.916 290.306 123.418 290.544C132.862 290.881 137.921 295.601 139.271 306.388C139.945 310.096 139.945 314.142 139.945 318.187V319.535C139.945 328.637 142.306 337.065 147.366 344.482C152.007 351.76 158.695 357.506 166.591 361V359.989L165.917 358.977C159.845 340.099 164.23 326.952 180.758 315.827L185.817 312.456C189.48 310.08 193.079 307.607 196.61 305.04C202.962 300.647 208.297 294.944 212.254 288.314C216.211 281.684 218.697 274.282 219.546 266.609C220.558 259.867 219.883 253.125 217.522 246.382L214.824 248.405L209.427 251.776C185.805 262.598 159.392 265.78 133.874 260.878C117.009 258.518 101.157 254.136 89.3514 239.977Z" fill="#050505"/>
<path d="M107.228 213.008C73.9672 214.374 41.3018 222.278 11.0996 236.269L92.7243 14.7875C95.0854 8.04533 99.1329 4 104.192 4H202.007C207.066 4 211.114 8.04533 213.475 14.7875L295.1 236.269C295.1 236.269 255.974 212.671 198.971 212.671L163.218 101.762C161.869 96.0312 157.822 92.3229 153.437 92.3229C149.052 92.3229 145.005 96.0312 143.655 101.425L107.228 213.008ZM89.3514 239.977C82.6055 262.227 87.3276 293.241 103.518 308.074C103.726 307.282 103.951 306.496 104.192 305.714C105.006 301.282 107.406 297.298 110.944 294.507C114.482 291.715 118.916 290.306 123.418 290.544C132.862 290.881 137.921 295.601 139.271 306.388C139.945 310.096 139.945 314.142 139.945 318.187V319.535C139.945 328.637 142.306 337.065 147.366 344.482C152.007 351.76 158.695 357.506 166.591 361V359.989L165.917 358.977C159.845 340.099 164.23 326.952 180.758 315.827L185.817 312.456C189.48 310.08 193.079 307.607 196.61 305.04C202.962 300.647 208.297 294.944 212.254 288.314C216.211 281.684 218.697 274.282 219.546 266.609C220.558 259.867 219.883 253.125 217.522 246.382L214.824 248.405L209.427 251.776C185.805 262.598 159.392 265.78 133.874 260.878C117.009 258.518 101.157 254.136 89.3514 239.977Z" stroke="white" stroke-width="8"/>
</g>
<defs>
<filter id="filter0_d_2001_5" x="0" y="0" width="306.795" height="375.144" filterUnits="userSpaceOnUse" color-interpolation-filters="sRGB">
<feFlood flood-opacity="0" result="BackgroundImageFix"/>
<feColorMatrix in="SourceAlpha" type="matrix" values="0 0 0 0 0 0 0 0 0 0 0 0 0 0 0 0 0 0 127 0" result="hardAlpha"/>
<feOffset dy="4"/>
<feGaussianBlur stdDeviation="2"/>
<feComposite in2="hardAlpha" operator="out"/>
<feColorMatrix type="matrix" values="0 0 0 0 0 0 0 0 0 0 0 0 0 0 0 0 0 0 0.25 0"/>
<feBlend mode="normal" in2="BackgroundImageFix" result="effect1_dropShadow_2001_5"/>
<feBlend mode="normal" in="SourceGraphic" in2="effect1_dropShadow_2001_5" result="shape"/>
</filter>
</defs>
</svg>
