<svg width="100" height="101" viewBox="0 0 100 101" fill="none" xmlns="http://www.w3.org/2000/svg">
<path d="M50 100.025C77.6142 100.025 100 77.6337 100 50.0126C100 22.3914 77.6142 0 50 0C22.3857 0 0 22.3914 0 50.0126C0 77.6337 22.3857 100.025 50 100.025Z" fill="white"/>
<path d="M17.7334 50.1459C17.6667 32.4081 32.2222 17.7488 49.9223 17.7377C67.6111 17.7377 82.3001 32.397 82.2668 50.0458C82.2445 67.4724 67.7334 82.065 50.2334 82.2762C32.6334 82.4873 17.8 67.817 17.7334 50.1459ZM48.0223 78.553V61.4265C44.3334 61.6821 40.9223 61.9043 37.0112 62.1711C39.3334 69.1395 41.1556 75.2077 48.0223 78.553ZM51.9334 78.7197C58.9667 74.6742 60.989 68.6616 62.8112 61.9155C58.8667 61.7377 55.5 61.582 51.9334 61.4153V78.7197ZM20.7223 50.1459C21.6556 54.2914 22.4667 57.9367 23.3334 61.771C26.9445 60.893 29.9001 60.1706 33.089 59.3926C32.7778 56.1918 32.5 53.2689 32.2 50.1459H20.7223ZM33.6778 37.2982C24.7445 33.7529 22.4556 35.5089 21.7889 46.1671H32.4334C32.8556 43.133 33.2556 40.3657 33.6889 37.2982H33.6778ZM67.9668 50.1681C65.9334 59.4037 67.2667 60.993 77.0223 60.6819C77.6889 57.3699 78.3889 53.9579 79.1556 50.1681H67.9668ZM67.5445 46.2782H79.0112C77.4557 42.0772 76.0778 38.3318 74.6556 34.5086C71.2889 35.5867 68.8001 36.398 66.2334 37.2204C66.689 40.3434 67.089 43.1219 67.5445 46.2893V46.2782ZM48.1556 50.257H35.5334C35.9334 53.38 36.2778 56.1029 36.6334 58.8814C40.8223 58.4591 44.4667 58.1034 48.1556 57.7255V50.2459V50.257ZM64.3445 50.2459H52.1556V57.9256C56.0778 58.1146 59.6 58.2701 63.4112 58.4479C63.7223 55.7362 64.0001 53.2577 64.3445 50.2348V50.2459ZM48.1 21.3831C42.2112 24.2505 40.0001 28.9184 38.189 34.5198C41.6667 34.9421 44.7667 35.3088 48.1 35.7089V21.3831ZM35.8778 46.1115H47.9778V39.1097C44.2556 38.7208 40.7889 38.354 37.0556 37.965C36.6445 40.8324 36.2889 43.2775 35.8889 46.1115H35.8778ZM52.1112 21.6498V35.8312C55.5223 35.3644 58.5223 34.9532 61.8445 34.4975C59.7667 28.9739 57.8334 24.0949 52.1112 21.6498ZM62.9556 37.9428C58.789 38.4207 55.4334 38.7986 52 39.1875V46.1337H63.9112C63.5778 43.3108 63.3001 40.8435 62.9556 37.9428ZM33.3334 62.9269C30.6556 63.5604 28.1778 64.1494 25.7 64.7385C25.5334 65.2386 25.3556 65.7387 25.1889 66.2388C29.5889 69.8842 33.9889 73.5406 38.3889 77.186C38.6334 76.8748 38.8778 76.5636 39.1223 76.2524C37.2556 71.9402 35.3778 67.6392 33.3334 62.9269ZM61.1334 75.8079C61.4667 76.1968 61.8001 76.5859 62.1334 76.9637C66.4112 73.2184 70.7001 69.4618 74.9779 65.7164C74.7445 65.2719 74.5112 64.8384 74.2779 64.3939C71.6334 63.8048 68.9889 63.2158 66.6 62.6823C64.6334 67.4057 62.8778 71.6068 61.1334 75.8079ZM71.4778 31.9302C71.6445 31.5079 71.8223 31.0855 71.989 30.6632C68.3445 28.0848 64.6889 25.5063 61.0445 22.9279C60.8889 23.1835 60.7445 23.4503 60.589 23.7059C62.2001 26.9845 63.8223 30.2631 65.5223 33.7195C67.589 33.0971 69.5334 32.5081 71.4667 31.9302H71.4778ZM39.2778 23.8726C39.0778 23.5503 38.8778 23.2391 38.6778 22.9168C35.1112 25.5286 31.5445 28.1514 27.1112 31.4078C30.5112 32.4192 32.5445 33.0194 34.4556 33.5862C36.2334 29.9964 37.7556 26.9401 39.2778 23.8726Z" fill="#007078"/>
</svg>
