<svg width="100" height="101" viewBox="0 0 100 101" fill="none" xmlns="http://www.w3.org/2000/svg">
<path d="M50 100.025C77.6142 100.025 100 77.6337 100 50.0126C100 22.3914 77.6142 0 50 0C22.3858 0 0 22.3914 0 50.0126C0 77.6337 22.3858 100.025 50 100.025Z" fill="#007078"/>
<path d="M60.0222 39.6544L61.4555 35.1866H67.0111L61.3 56.0585C60.8333 57.8701 60.6 59.0593 60.6 59.6372C60.6 60.9598 61.0888 61.6154 62.0777 61.6154C63.7111 61.6154 65.3222 60.8819 66.9111 59.4149C68.5 57.9479 69.8111 55.9918 70.8333 53.5246C71.8555 51.0684 72.3666 48.5122 72.3666 45.8671C72.3666 41.8772 71.4 38.3763 69.4778 35.3756C67.5444 32.3748 65 30.1076 61.8222 28.5739C58.6444 27.0401 55.1111 26.2844 51.2 26.2844C46.8 26.2844 42.8333 27.3513 39.3111 29.4741C35.7889 31.5968 33.0667 34.4754 31.1556 38.1207C29.2444 41.7661 28.2778 45.8004 28.2778 50.2237C28.2778 54.647 29.3111 58.7037 31.3667 62.3046C33.4222 65.9055 36.2555 68.7061 39.8555 70.7177C43.4555 72.7293 47.4666 73.7296 51.9 73.7296C55.3444 73.7296 58.6444 73.0184 61.8111 71.6069C64.9777 70.1954 67.6333 68.2505 69.8111 65.761H75.4C72.8667 69.8509 69.4778 73.0517 65.2556 75.3634C61.0333 77.664 56.4778 78.8198 51.5778 78.8198C47.5333 78.8198 43.7 78.0752 40.0777 76.5859C36.4555 75.0966 33.3333 73.0739 30.7111 70.5066C28.0889 67.9393 26.0222 64.8718 24.4999 61.2932C22.9777 57.7145 22.2111 53.9247 22.2111 49.9125C22.2111 44.6557 23.5222 39.81 26.1333 35.3978C28.7444 30.9856 32.2777 27.5069 36.7222 24.9841C41.1666 22.4612 45.9889 21.1942 51.1889 21.1942C55.9333 21.1942 60.3111 22.1834 64.3444 24.1505C68.3778 26.1177 71.6111 28.9295 74.0778 32.586C76.5333 36.2424 77.7666 40.3435 77.7666 44.9002C77.7666 47.6675 77.3222 50.2904 76.4444 52.7466C75.5666 55.2027 74.4333 57.2811 73.0444 58.9593C71.6555 60.6375 70.1222 62.1156 68.4444 63.3715C66.7667 64.6273 65.1111 65.5498 63.4889 66.1278C61.8666 66.7057 60.4 67.0057 59.0778 67.0057C57.7556 67.0057 56.7 66.6278 55.8111 65.861C54.9222 65.0941 54.4555 63.9716 54.3777 62.5046H54.2222C53.0555 63.8049 51.6778 64.8718 50.0889 65.7276C48.5 66.5834 46.9 67.0057 45.2889 67.0057C42.0222 67.0057 39.2889 65.7832 37.0667 63.3493C34.8445 60.9153 33.7444 57.9701 33.7444 54.5248C33.7444 52.5021 34.0111 50.5016 34.5444 48.5011C35.0778 46.5006 35.8555 44.6446 36.8777 42.9108C37.9 41.177 39.1 39.6322 40.4888 38.2874C41.8777 36.9426 43.4889 35.8757 45.3222 35.0977C47.1556 34.3197 49.0888 33.9308 51.1111 33.9308C55.1777 33.9308 58.1444 35.8313 60.0111 39.6433L60.0222 39.6544ZM40.4444 53.8357C40.4444 55.9585 41.0444 57.6812 42.2333 59.0037C43.4222 60.3263 44.9555 60.982 46.8222 60.982C48.8111 60.982 50.6778 60.204 52.4 58.6481C54.1222 57.0921 55.4444 55.2361 56.3667 53.0911C57.2889 50.9461 57.7444 48.8679 57.7444 46.8785C57.7444 45.0113 57.1222 43.3887 55.8778 42.0217C54.6333 40.6547 53.1555 39.9656 51.4444 39.9656C49.8888 39.9656 48.4111 40.4102 47.0111 41.2882C45.6111 42.1662 44.4444 43.2887 43.5111 44.6446C42.5778 46.0005 41.8333 47.5008 41.2778 49.1346C40.7222 50.7683 40.4444 52.3353 40.4444 53.8357Z" fill="white"/>
</svg>
