<svg width="100" height="101" viewBox="0 0 100 101" fill="none" xmlns="http://www.w3.org/2000/svg">
<path d="M35.8333 39.7766H24.6888V74.752H35.8333V39.7766Z" fill="#007078"/>
<path d="M61.4 38.9098C58.3112 39.4766 55.1778 40.8658 52.6889 44.689V39.7767H42.3V74.7521H53.2223V55.325C53.2112 53.6468 53.7445 52.0131 54.7445 50.6794C55.9112 49.0901 57.7889 48.1788 59.7556 48.2232C65.2223 48.2232 65.0667 54.6693 65.0667 55.6362V74.7632H76V51.2129C76 41.2548 66.8556 37.9318 61.3778 38.9209L61.4 38.9098Z" fill="#007078"/>
<path d="M34.6878 33.3638C37.1351 30.9159 37.1351 26.947 34.6878 24.4991C32.2405 22.0512 28.2727 22.0512 25.8254 24.4991C23.3781 26.947 23.3781 30.9159 25.8254 33.3638C28.2727 35.8117 32.2405 35.8117 34.6878 33.3638Z" fill="#007078"/>
<path d="M100 50.0125C100 22.3945 77.6111 0 50 0C22.3889 0 0 22.3834 0 50.0125C0 77.6417 22.3889 100.025 50 100.025C77.6111 100.025 100 77.6306 100 50.0125ZM35.8222 74.7521H24.6778V39.7766H35.8222V74.7521ZM30.2556 35.1977C26.7889 35.1977 23.9889 32.3859 23.9889 28.9295C23.9889 25.473 26.8 22.6612 30.2556 22.6612C33.7111 22.6612 36.5222 25.473 36.5222 28.9295C36.5222 32.3859 33.7111 35.1977 30.2556 35.1977ZM65.0778 74.7521V55.625C65.0778 54.6581 65.2333 48.2121 59.7667 48.2121C57.7889 48.1676 55.9222 49.079 54.7556 50.6682C53.7556 52.013 53.2111 53.6468 53.2333 55.3139V74.7409H42.3111V39.7655H52.7V44.6779C55.1889 40.8658 58.3222 39.4654 61.4111 38.8986C66.8889 37.8984 76.0333 41.2325 76.0333 51.1906V74.7409H65.1L65.0778 74.7521Z" fill="white"/>
</svg>
