<svg width="100" height="101" viewBox="0 0 100 101" fill="none" xmlns="http://www.w3.org/2000/svg">
<path d="M50 100.025C77.6142 100.025 100 77.6337 100 50.0126C100 22.3914 77.6142 0 50 0C22.3858 0 0 22.3914 0 50.0126C0 77.6337 22.3858 100.025 50 100.025Z" fill="#007078"/>
<path fill-rule="evenodd" clip-rule="evenodd" d="M20.0556 43.6554V73.8297L20.0778 73.9963V74.1631L20.1111 74.3297L20.1333 74.4854C20.1555 74.5965 20.1667 74.6966 20.1889 74.8077C20.2111 74.9077 20.2333 75.0188 20.2555 75.1189L20.3 75.2745C20.3333 75.3745 20.3556 75.4745 20.4 75.5746C20.4556 75.7302 20.5111 75.8746 20.5667 76.0191L20.6555 76.208C20.6889 76.2858 20.7333 76.3636 20.7667 76.4414L20.8444 76.5748L20.9222 76.7081L21 76.8415L21.0778 76.9749L21.1555 77.1082L21.2444 77.2305L21.3333 77.3528C21.4555 77.5195 21.5889 77.6751 21.7333 77.8307L21.8444 77.9418C22.0556 78.164 22.2889 78.3752 22.5333 78.5641C22.6111 78.6308 22.7 78.6864 22.7778 78.7531L22.9 78.842L23.0333 78.9309L23.1667 79.0087L23.3 79.0865L23.4333 79.1643L23.5778 79.2421L23.7111 79.3088C23.8 79.3533 23.9 79.3977 24 79.4422L24.1445 79.4977L24.2889 79.5533L24.4333 79.6088L24.6222 79.6645C24.7111 79.6867 24.8 79.72 24.8889 79.7423C25.4 79.8756 25.9444 79.9423 26.5 79.9423H39.7333V65.9055C39.7333 62.3601 42.6222 59.4594 46.1778 59.4594H53.8333C57.3778 59.4594 60.2778 62.3601 60.2778 65.9055V79.9423H73.5111C74.0667 79.9423 74.6 79.8756 75.1222 79.7423C75.2111 79.72 75.3 79.6978 75.3889 79.6645L75.5778 79.6088L75.7222 79.5533L75.8667 79.4977L76.0111 79.4422C76.1111 79.3977 76.2 79.3533 76.3 79.3088L76.4444 79.2421L76.5778 79.1643L76.7111 79.0865L76.8444 79.0087L76.9778 78.9309L77.1111 78.842L77.2333 78.7531C77.3222 78.6976 77.4 78.6308 77.4889 78.5641C77.7333 78.3752 77.9666 78.164 78.1778 77.9418L78.2889 77.8307C78.4222 77.6751 78.5555 77.5195 78.6778 77.3528L78.7667 77.2305L78.8556 77.1082L78.9333 76.9749L79.0111 76.8415L79.0889 76.7081L79.1667 76.5748L79.2333 76.4414C79.2778 76.3636 79.3111 76.2858 79.3556 76.208L79.4333 76.0191C79.4889 75.8746 79.5556 75.7302 79.6 75.5746C79.6333 75.4745 79.6667 75.3745 79.6889 75.2745L79.7333 75.1189C79.7667 75.0188 79.7889 74.9077 79.8111 74.8077C79.8333 74.7077 79.8444 74.5965 79.8667 74.4854L79.8889 74.3297L79.9111 74.1631L79.9333 73.9963V73.8297L79.9445 73.6629V73.4962V43.6443C79.9445 41.666 79.1556 39.9656 77.6444 38.6986L55.4889 20.1273C52.9222 17.9712 47.0667 17.9712 44.4889 20.1273L22.3444 38.6986C20.8333 39.9656 20.0444 41.666 20.0444 43.6443" fill="white"/>
</svg>
