<svg width="100" height="101" viewBox="0 0 100 101" fill="none" xmlns="http://www.w3.org/2000/svg">
<path d="M49.9931 100.025C77.6035 100.025 99.9892 77.6337 99.9931 50.0126C99.9969 22.3914 77.6174 0 50.007 0C22.3966 0 0.0108041 22.3914 0.00696526 50.0126C0.00312646 77.6337 22.3827 100.025 49.9931 100.025Z" fill="#007078"/>
<path d="M27.5829 41.8278C27.594 42.4947 27.6495 43.1615 27.7384 43.8284C28.4605 49.0854 31.4711 53.7533 34.2151 58.1656C37.7479 63.8561 41.4251 69.4576 45.1245 75.0369C45.791 76.0371 46.4576 77.0486 47.1242 78.0488C49.3571 81.4164 50.6014 81.4164 52.7788 78.1377C58.5112 69.5242 64.3214 60.9442 69.5761 52.0529C74.2531 44.1507 72.7312 33.8591 66.6655 27.0683C60.4109 20.0664 50.8791 17.6879 42.2249 20.9777C37.7701 22.6671 33.9151 25.7346 31.2711 29.7134C28.8826 33.3033 27.4606 37.5156 27.5606 41.8167L27.5829 41.8278Z" fill="white"/>
<path d="M49.9569 50.0633C54.9819 50.0633 59.0555 45.988 59.0555 40.9609C59.0555 35.9337 54.9819 31.8584 49.9569 31.8584C44.932 31.8584 40.8584 35.9337 40.8584 40.9609C40.8584 45.988 44.932 50.0633 49.9569 50.0633Z" fill="#007078"/>
</svg>
