<svg width="100" height="101" viewBox="0 0 100 101" fill="none" xmlns="http://www.w3.org/2000/svg">
<path d="M50 100.025C77.6142 100.025 100 77.6337 100 50.0125C100 22.3914 77.6142 0 50 0C22.3858 0 0 22.3914 0 50.0125C0 77.6337 22.3858 100.025 50 100.025Z" fill="white"/>
<path d="M83.3332 50.0126C83.3332 45.9893 80.0665 42.7219 76.0443 42.7219C74.0776 42.7219 72.2999 43.4998 70.9888 44.7668C65.9999 41.1659 59.1332 38.8431 51.4888 38.5764L54.811 22.9502L65.6665 25.2619C65.7999 28.0182 68.0555 30.2187 70.8555 30.2187C73.6555 30.2187 76.0665 27.8848 76.0665 25.0063C76.0665 22.1278 73.7333 19.7939 70.8555 19.7939C68.811 19.7939 67.0554 20.9831 66.1999 22.7057L54.0777 20.1273C53.7444 20.0495 53.3888 20.1273 53.1 20.3051C52.8111 20.4941 52.6111 20.7941 52.5333 21.1275L48.8221 38.5653C41.0665 38.7764 34.0888 41.1103 29.0333 44.7446C27.7221 43.4887 25.9443 42.7107 23.9888 42.7107C19.9665 42.7107 16.7 45.9782 16.7 50.0015C16.7 52.9689 18.4666 55.5139 21.0111 56.6476C20.9 57.37 20.8333 58.1035 20.8333 58.8481C20.8333 70.0731 33.8888 79.1643 49.9999 79.1643C66.111 79.1643 79.1666 70.0731 79.1666 58.8481C79.1666 58.1035 79.111 57.3811 78.9999 56.6587C81.5554 55.5251 83.3332 52.9689 83.3332 49.9903V50.0126ZM33.3332 55.2139C33.3332 52.3465 35.6665 50.0015 38.5443 50.0015C41.4221 50.0015 43.7555 52.3354 43.7555 55.2139C43.7555 58.0924 41.4221 60.4263 38.5443 60.4263C35.6665 60.4263 33.3332 58.0924 33.3332 55.2139ZM62.3777 68.984C58.8222 72.5293 52.011 72.8072 50.011 72.8072C48.011 72.8072 41.1999 72.5293 37.6444 68.984C37.1221 68.4616 37.1221 67.6059 37.6444 67.0724C38.1666 66.55 39.0221 66.55 39.5554 67.0724C41.7999 69.3174 46.5888 70.1065 50.011 70.1065C53.4333 70.1065 58.2333 69.3063 60.4777 67.0724C61.0111 66.55 61.8555 66.55 62.3888 67.0724C62.911 67.5948 62.911 68.4505 62.3888 68.984H62.3777ZM61.4665 60.4263C58.5999 60.4263 56.2555 58.0924 56.2555 55.2139C56.2555 52.3354 58.5887 50.0015 61.4665 50.0015C64.3443 50.0015 66.6777 52.3354 66.6777 55.2139C66.6777 58.0924 64.3443 60.4263 61.4665 60.4263Z" fill="#007078"/>
</svg>
