<?xml version="1.0" encoding="UTF-8"?>
<svg id="Capa_1" data-name="Capa 1" xmlns="http://www.w3.org/2000/svg" viewBox="0 0 500 172.74">
  <path d="M91.24,169.49c-2.98-.8-5.39-2.84-6.59-5.57l-43.12-94.88-27.26,62.27L.66,162.27h.06l-.72,1.65h8.11l8.13-18.55h44.42l8.99,19.45c2.14,4.81,6.86,7.92,12.03,7.92h12.97v-2.32l-3.41-.93ZM19.13,138.78l18.72-42.73,19.76,42.73H19.13Z" style="fill: #007078;"/>
  <path d="M151.07,72.99l.71.2c6.57,1.83,10.19,5.72,10.19,10.95v78.13h58.4v-6.59h-42.99v-37.38h35.89v-7.45h-35.89v-33.58h42.99v-6.59h-69.3v2.31Z" style="fill: #007078;"/>
  <path d="M305.39,133.41l-56.46-54.79-.24-.2c-3.21-2.71-9.2-7.74-18.26-7.74h-.97v2.31l.7.2c8.93,2.6,9.96,12.11,9.96,19.03v70.04h7.45v-62.72l65.28,64.06v-92.93h-7.45v62.74Z" style="fill: #007078;"/>
  <polygon points="320.7 78.13 350.47 78.13 350.47 162.27 365.87 162.27 365.87 78.13 395.51 78.13 395.51 70.68 320.7 70.68 320.7 78.13" style="fill: #007078;"/>
  <path d="M403.38,73l.71.19c6.57,1.8,10.19,5.69,10.19,10.95v78.13h14.18v-91.59h-25.08v2.32Z" style="fill: #007078;"/>
  <path d="M473.02,108.63c-10.64-5.44-21.64-11.06-21.64-19.71,0-7.37,7.77-12.87,14.71-12.87,11.16,0,18.3,5.45,21.23,16.19l.19.71h6.32l-.22-1.15c-2.91-15.28-11.96-22.71-27.65-22.71-7.52,0-27.06,4.38-27.06,24.36,0,15.64,15.75,23.72,25.16,28.54l.47.24c15.14,7.82,21.89,12.75,21.89,21.31,0,3.75-3.02,13.48-16.79,13.48-3.44,0-20.78-.95-23.79-19.64l-.13-.81h-5.98l.15,1.1c2.49,17.79,12.66,26.43,31.09,26.43,21.29,0,29.01-15.37,29.01-25.71,0-12.02-7.06-19.81-26.98-29.77Z" style="fill: #007078;"/>
  <path d="M126.09,70.42l-28.56,64.83-29.74-67.87h-8.11l41.54,94.88,43.14-98.32c-4.58.27-10.25,1.45-15.87,4.86-.85.51-1.63,1.06-2.39,1.61Z" style="fill: #007078;"/>
  <g>
    <path d="M150.23,36.59c-9.02.78-13.77,6.76-15.91,11.58l-7.82,17.76c.76-.56,1.55-1.1,2.39-1.61,5.62-3.41,11.29-4.59,15.87-4.86l1.2-2.74c1.98-2.67,1.11-11.36,18.4-12.69l36.57-2.14v-5.9l-50.7.6Z" style="fill: #007078;"/>
    <path d="M200.84,30.79l-80.34,1.25c-8.04-1.97-10.91-11.56-14.28-18.22,5.09.41,10.68-.13,15.12,2.98,1.83,1.28,2.32,3.18,4.9,4.48,1.28.65,9.19,1.99,9.77,1.7,1.22-.62.19-2.16-.21-2.96-3.18-6.4-11.61-13.08-14.69-20.03,7.35.7,18.35.27,24.95,3.67,6.68,3.44,16.5,13.21,22.66,15.28,4.74,1.59,16.19.14,22.01,1.05,5.67.88,10.97,4.36,10.09,10.79Z" style="fill: #007078;"/>
  </g>
</svg>