<svg width="100" height="101" viewBox="0 0 100 101" fill="none" xmlns="http://www.w3.org/2000/svg">
<path d="M63.4556 79.8563C55.889 79.456 50.2445 77.2215 45.6334 73.0858C35.1334 63.6471 27.4445 52.363 25.9001 37.9882C25.4778 34.0748 26.689 29.6057 28.389 25.9814C29.4778 23.6801 32.6334 21.7123 35.2556 20.9119C41.289 19.0553 43.4667 20.7673 44.289 26.9264C44.5667 29.0165 44.5778 31.1399 44.9556 33.1966C45.6334 36.832 44.6112 39.5224 41.1556 41.1344C38.9556 42.1572 38.2334 43.747 39.589 45.926C42.7334 50.9511 45.8112 56.0206 49.1112 60.9456C50.9112 63.636 53.3001 64.3141 55.9556 61.8127C58.1334 59.756 60.5556 59.7449 63.1334 61.0568C65.1112 62.0684 67.1778 62.9022 69.1667 63.9028C71.5667 65.1146 74.3334 65.9818 74.1667 69.5393C74.0001 73.2637 72.7334 76.4544 69.3001 78.122C67.1445 79.167 64.6556 79.5116 63.4556 79.8563Z" fill="#007078"/>
<path d="M50 100.057C36.6444 100.057 24.0889 94.8536 14.6444 85.4038C5.2 75.954 0 63.3914 0 50.0283C0 36.6652 5.2 24.1025 14.6444 14.6527C24.0889 5.20293 36.6444 0 50 0C63.3556 0 75.9111 5.20293 85.3556 14.6527C94.8 24.1025 100 36.6652 100 50.0283C100 63.3914 94.8 75.954 85.3556 85.4038C75.9111 94.8536 63.3556 100.057 50 100.057ZM50 4.10232C24.6889 4.10232 4.1 24.7028 4.1 50.0283C4.1 75.3537 24.6889 95.9542 50 95.9542C75.3111 95.9542 95.9 75.3537 95.9 50.0283C95.9 24.7028 75.3111 4.10232 50 4.10232Z" fill="#007078"/>
</svg>
