<svg width="100" height="100" viewBox="0 0 100 100" fill="none" xmlns="http://www.w3.org/2000/svg">
<path d="M49.9875 99.975C77.5948 99.975 99.9805 77.5948 99.9875 49.9875C99.9944 22.3802 77.6198 0 50.0125 0C22.4052 0 0.0194177 22.3802 0.0125015 49.9875C0.00558529 77.5948 22.3801 99.975 49.9875 99.975Z" fill="#007078"/>
<path d="M63.857 80.7052C56.06 80.2942 50.251 77.9945 45.4973 73.7284C34.668 64.0074 26.7599 52.3754 25.1716 37.5773C24.7384 33.5445 25.9824 28.945 27.7373 25.201C28.848 22.8347 32.1023 20.8017 34.8124 19.9795C41.0323 18.0687 43.2648 19.8351 44.12 26.1787C44.4088 28.3229 44.4199 30.5226 44.8086 32.6446C45.5084 36.3885 44.4532 39.166 40.8879 40.8214C38.6221 41.8768 37.8779 43.5099 39.2774 45.754C42.5095 50.9312 45.6861 56.1528 49.0848 61.2188C50.9397 63.9851 53.3943 64.6961 56.1266 62.1076C58.3702 59.9856 60.8581 59.9745 63.5238 61.3299C65.5675 62.3631 67.6889 63.2297 69.7437 64.2629C72.2094 65.5071 75.0639 66.407 74.8973 70.0732C74.7196 73.9061 73.4201 77.1946 69.877 78.9166C67.6556 79.9942 65.0899 80.3497 63.857 80.6941V80.7052Z" fill="white"/>
</svg>
